<svg xmlns="http://www.w3.org/2000/svg" viewBox="0 0 92.79 91"><defs><style>.cls-1{fill:#231f20;}</style></defs><g id="Layer_2" data-name="Layer 2"><g id="Layer_1-2" data-name="Layer 1"><path class="cls-1" d="M24.05,1.78l4.81,9.74L39.6,13.08a3.19,3.19,0,0,1,1.77,5.45L33.6,26.11l1.83,10.7a3.2,3.2,0,0,1-4.64,3.37l-9.61-5-9.6,5a3.2,3.2,0,0,1-4.64-3.37l1.83-10.7L1,18.53a3.19,3.19,0,0,1,1.77-5.45l10.74-1.56,4.81-9.74A3.2,3.2,0,0,1,24.05,1.78Z"/><path class="cls-1" d="M74.5,1.78l4.8,9.74L90,13.08a3.2,3.2,0,0,1,1.78,5.45L84,26.11l1.84,10.7a3.2,3.2,0,0,1-4.64,3.37l-9.61-5-9.61,5a3.2,3.2,0,0,1-4.64-3.37l1.83-10.7-7.77-7.58a3.19,3.19,0,0,1,1.77-5.45L64,11.52l4.8-9.74A3.21,3.21,0,0,1,74.5,1.78Z"/><path class="cls-1" d="M71.63,58.27l3,6,1.23,2.48,2.73.39,6.63,1-4.8,4.68-2,1.92.47,2.72L80,84.05l-5.93-3.12-2.44-1.29-2.44,1.29-5.94,3.12,1.14-6.61.46-2.72-2-1.92-4.8-4.68,6.63-1,2.73-.39,1.22-2.48,3-6m0-7.83a3.17,3.17,0,0,0-2.87,1.79L64,62,53.21,63.52A3.2,3.2,0,0,0,51.44,69l7.77,7.57-1.83,10.7A3.2,3.2,0,0,0,60.53,91,3.28,3.28,0,0,0,62,90.63l9.61-5.06,9.61,5.06a3.25,3.25,0,0,0,1.49.37,3.21,3.21,0,0,0,3.15-3.75L84,76.55,91.82,69A3.2,3.2,0,0,0,90,63.52L79.3,62l-4.8-9.73a3.17,3.17,0,0,0-2.87-1.79Z"/><path class="cls-1" d="M24,52.23,28.83,62l10.74,1.56A3.2,3.2,0,0,1,41.34,69l-7.77,7.57,1.84,10.7a3.21,3.21,0,0,1-4.65,3.38l-9.6-5.06-9.61,5.06a3.2,3.2,0,0,1-4.64-3.38l1.83-10.7L1,69a3.2,3.2,0,0,1,1.77-5.46L13.48,62l4.81-9.73A3.2,3.2,0,0,1,24,52.23Z"/></g></g></svg>