<svg xmlns="http://www.w3.org/2000/svg" viewBox="0 0 92.7 92.7"><defs><style>.cls-1{fill:#231f20;}</style></defs><g id="Layer_2" data-name="Layer 2"><g id="Layer_1-2" data-name="Layer 1"><path class="cls-1" d="M21.13,5.25A15.88,15.88,0,1,1,5.25,21.13,15.9,15.9,0,0,1,21.13,5.25m0-5.25A21.13,21.13,0,1,0,42.26,21.13,21.13,21.13,0,0,0,21.13,0Z"/><path class="cls-1" d="M21.13,55.69A15.88,15.88,0,1,1,5.25,71.57,15.91,15.91,0,0,1,21.13,55.69m0-5.25A21.13,21.13,0,1,0,42.26,71.57,21.13,21.13,0,0,0,21.13,50.44Z"/><path class="cls-1" d="M71.57,55.69A15.88,15.88,0,1,1,55.69,71.57,15.9,15.9,0,0,1,71.57,55.69m0-5.25A21.13,21.13,0,1,0,92.7,71.57,21.13,21.13,0,0,0,71.57,50.44Z"/><path class="cls-1" d="M71.57,5.25A15.88,15.88,0,1,1,55.69,21.13,15.89,15.89,0,0,1,71.57,5.25m0-5.25A21.13,21.13,0,1,0,92.7,21.13,21.13,21.13,0,0,0,71.57,0Z"/><circle class="cls-1" cx="21.13" cy="71.57" r="10.62"/></g></g></svg>